<svg xmlns="http://www.w3.org/2000/svg" viewBox="0 0 78.68 109.75"><defs><style>.cls-1{fill:#333;}.cls-2{fill:#4d4d4d;}.cls-3{fill:#fff;}</style></defs><title>fruity_4</title><g id="Layer_2" data-name="Layer 2"><g id="Layer_1-2" data-name="Layer 1"><polygon class="cls-1" points="42.14 48.77 48.24 48.77 56.84 53.03 51.29 60.96 63.48 64.01 69.58 67.06 66.53 88.4 51.29 94.5 20.81 70.11 29.95 48.77 42.14 48.77"/><path class="cls-2" d="M15.78,17.2s15.64,1.38,17.84,13.15S16.27,31.64,15.78,17.2Z"/><path class="cls-2" d="M51.24,0S58.6,24.48,41.13,34.27,28.46,8.67,51.24,0Z"/><path class="cls-1" d="M76.93,70.62a11.89,11.89,0,0,0-1.76-.53c-2.43-.82-3.69-3.14-4.24-5.4l-.51-2.22L69.13,63l-.8.34a8.59,8.59,0,0,1-3,.67,3,3,0,0,0-2.84,3A18.57,18.57,0,0,1,59.23,77.9l-13.35,18a3.37,3.37,0,0,1-5.74,0c-6.3-8.45-17.26-16.49-20.2-26.82a18.55,18.55,0,0,1,1-13.25c4-8.06,14.07-6.17,19.89-.93a3.1,3.1,0,0,0,4.06.09c3.54-3.07,8.08-3.48,11.68-1a9.35,9.35,0,0,1,.23-1,8.28,8.28,0,0,0,.53-2.14c-3.92-1.06-7.66-1.53-9.16-6.13a8.81,8.81,0,0,1,.55-6.51L45.5,32.68c-1.59-.08-3.23-.11-4.93-.11l-37.52-.1a3,3,0,0,0-3,3v.2a3.07,3.07,0,0,0,2.79,3q6.46.66,6.47,4.66V99q0,4-6.47,4.66a3.07,3.07,0,0,0-2.79,3H0a3,3,0,0,0,3,3H40.57a63.25,63.25,0,0,0,16.64-2,27.41,27.41,0,0,0,12-6.65,28.6,28.6,0,0,0,7.22-12.47A58.84,58.84,0,0,0,78.68,75C78.51,73.14,78.08,71.26,76.93,70.62Z"/><path class="cls-3" d="M42.94,57.17c-5.1-6.82-17.42-10.46-22-1.33a18.55,18.55,0,0,0-1,13.25c2.94,10.33,13.9,18.37,20.2,26.82a3.37,3.37,0,0,0,5.74,0l13.35-18a19.27,19.27,0,0,0,2.93-14.34,8.43,8.43,0,0,1-2.89-1.68,8.53,8.53,0,0,1-2.66-7.83C52.29,51,46.62,52.21,42.94,57.17Z"/><path class="cls-1" d="M49.44,69.29a4.17,4.17,0,0,1,2,2.44,5.22,5.22,0,0,1,.41,2.2,4.59,4.59,0,0,1-.51,1.95,6.59,6.59,0,0,1-4.64,3.19,2.11,2.11,0,0,1-1.27,0m0,0c-1.2-.58-1.28-4.57-1.14-5.76a4.49,4.49,0,0,1,3.11-4,2.7,2.7,0,0,1,2,0"/><path class="cls-1" d="M38.47,79a2.11,2.11,0,0,1-1.27,0,6.61,6.61,0,0,1-4.65-3.19,4.73,4.73,0,0,1-.5-1.95,5.36,5.36,0,0,1,.4-2.2,4.15,4.15,0,0,1,2-2.44m0,0a2.7,2.7,0,0,1,2,0,4.49,4.49,0,0,1,3.11,4c.14,1.19,0,5.18-1.14,5.76"/></g></g></svg>